# xmcd
#
# Track frame offsets:
#	150
#	16370
#	26867
#	41800
#	57348
#	73559
#	89410
#	101756
#	112634
#	124166
#	144889
#	156577
#	175342
#	189082
#	201534
#	215606
#
# Disc length: 3104 seconds
# Revision: 12
# Processed by: cddbd v1.5.2PL0 Copyright (c) Steve Scherf et al.
# Submitted via: dBpowerAMP V12.0
#
DISCID=e80c1e10
DTITLE=Christmas - A Very Special Acoustic Christmas
DYEAR=2003
DGENRE=Christmas
TTITLE0=Silent Night - Reba McEntire
TTITLE1=Frosty The Snowman - Dan Tyminski
TTITLE2=Please Come Home For Christmas - Willie Nelson
TTITLE3=Just Put A Ribbon In Your Hair - Alan Jackson
TTITLE4=Only You Can Bring Me Cheer (Gentleman's Lady) - Alison Krauss
TTITLE5=Even Santa Claus Gets The Blues - Marty Stuart
TTITLE6=Jingle Bells - Earl Scruggs
TTITLE7=Christmas Is Near - Ralph Stanley
TTITLE8=O Come All Ye Faithful - Patty Loveless
TTITLE9=O Holy Night - Wynonna
TTITLE10=Winter Wonderland - Pat Green
TTITLE11=Let It Snow! Let It Snow! Let It Snow! - Sam Bush
TTITLE12=Away In A Manger - Ricky Skaggs
TTITLE13=Christmas Time At Home - Rhonda Vincent
TTITLE14=I'll Be Home For Christmas - Tift Merritt
TTITLE15=Peace - Norah Jones
EXTD=
EXTT0=
EXTT1=
EXTT2=
EXTT3=
EXTT4=
EXTT5=
EXTT6=
EXTT7=
EXTT8=
EXTT9=
EXTT10=
EXTT11=
EXTT12=
EXTT13=
EXTT14=
EXTT15=
PLAYORDER=
